<?xml version="1.0" standalone="no"?>
<!DOCTYPE svg PUBLIC "-//W3C//DTD SVG 1.1//EN" "http://www.w3.org/Graphics/SVG/1.1/DTD/svg11.dtd" >
<svg xmlns="http://www.w3.org/2000/svg" xmlns:xlink="http://www.w3.org/1999/xlink" version="1.1">
<metadata></metadata>
<defs>
<font id="a_coppergothtitulbold" horiz-adv-x="1226" >
<font-face units-per-em="2048" ascent="1638" descent="-410" />
<missing-glyph horiz-adv-x="749" />
<glyph horiz-adv-x="0" />
<glyph unicode="&#xd;" horiz-adv-x="749" />
<glyph horiz-adv-x="2048" />
<glyph horiz-adv-x="2048" />
<glyph horiz-adv-x="2048" />
<glyph horiz-adv-x="2048" />
<glyph unicode=" "  horiz-adv-x="749" />
<glyph unicode="&#x09;" horiz-adv-x="749" />
<glyph unicode="&#xa0;" horiz-adv-x="749" />
<glyph unicode="!" horiz-adv-x="651" d="M147 1399v35h355v-35q-45 0 -60 -135l-41 -414q-18 -186 -18 -236q0 -59 53 -75v-35h-221v35q35 10 44 23t9 52q0 49 -18 236l-41 414q-6 68 -10 82q-14 53 -52 53zM178 147q0 63 42 117.5t106 54.5q68 0 107.5 -52t39.5 -120q0 -63 -42 -117.5t-105 -54.5t-105.5 54.5 t-42.5 117.5z" />
<glyph unicode="&#x22;" horiz-adv-x="954" d="M80 1399v43h317v-43q-29 0 -39 -17q-27 -39 -57 -389q-10 -117 -10 -94q0 -55 49 -55v-31h-199v31q49 0 49 55q0 68 -28.5 265.5t-40.5 216t-41 18.5zM559 1399v43h318v-43q-29 0 -39 -17q-27 -39 -58 -389q-10 -117 -10 -94q0 -55 49 -55v-31h-198v31q49 0 49 55 q0 68 -29 265.5t-41 216t-41 18.5z" />
<glyph unicode="#" horiz-adv-x="1648" d="M55 256l70 358h35q6 -68 63 -67h176l66 342h-178q-55 0 -86 -66h-37l72 359h32q4 -70 64 -70h176q16 96 43 219v10q0 41 -55 58l8 35h358l-8 -35q-72 -18 -82 -76l-41 -211h344q16 96 43 219v10q0 41 -55 58l6 35h358l-6 -35q-74 -16 -84 -76l-39 -211h172q61 0 91 70h34 l-67 -359h-37q-8 66 -61 66h-179l-63 -342h174q59 0 88 67h33l-66 -358h-35q-4 68 -63 68h-176l-39 -213v-9q-2 -4 -2 -6q0 -41 53 -61l-8 -35h-356l8 35q72 20 82 78l39 211h-345l-38 -213v-9q-2 -4 -2 -6q0 -41 53 -61l-6 -35h-357l6 35q74 23 84 78l39 211h-174 q-61 0 -90 -68h-35zM621 547h344l67 342h-344z" />
<glyph unicode="$" d="M63 131l125 352l23 -12q0 -109 127 -180q102 -57 227 -68v361q-203 0 -327 106q-133 113 -134 311q0 211 125 332t336 121v57q0 55 -53 76v33h233v-33q-45 -16 -53 -53q-2 -8 -2 -80q164 -16 332 -119q51 -31 78 -30q16 0 43 22l24 -14l-139 -338l-22 16q0 94 -115 160 q-98 57 -201 57v-331q221 0 342 -103q131 -111 131 -325q0 -152 -79.5 -267.5t-221.5 -169.5q-88 -33 -172 -32v-70q0 -59 51 -78v-33h-229v33q45 14 53 59v89q-182 14 -413 149q-18 10 -31 10q-12 0 -35 -22zM336 1055q0 -92 72 -140q61 -38 157 -38v331q-80 0 -147 -37 q-82 -43 -82 -116zM690 223q232 22 232 180q0 104 -68 146q-51 33 -164 33v-359z" />
<glyph unicode="%" horiz-adv-x="1519" d="M57 1075q0 147 70 252q80 119 221 119q145 0 225 -119q70 -102 70 -256q0 -150 -72 -250q-80 -117 -223 -116q-141 0 -221 118q-70 104 -70 252zM201 0v43q51 0 94 49q14 18 61 92l664 1067q35 55 35 101q0 39 -49 39v43h297v-43q-61 -8 -144 -140l-676 -1091 q-29 -47 -28 -72q0 -39 49 -55v-33h-303zM201 1075q0 -82 32 -143q41 -78 115 -78q76 0 117 74q33 61 33 143q0 225 -150 225q-76 0 -117 -75q-31 -61 -30 -146zM879 358q0 152 67 254q78 119 223 119t226 -121q67 -104 67 -258q0 -147 -71 -248q-80 -117 -222 -116 q-141 0 -221 118q-70 102 -69 252zM1022 356q0 -80 33 -141q43 -76 114 -76q74 0 115 76q33 59 33 141q0 86 -31 146q-39 78 -117 78q-74 0 -114 -78q-33 -63 -33 -146z" />
<glyph unicode="&#x26;" horiz-adv-x="1331" d="M51 408q0 272 256 428q-115 125 -114 270q0 158 108.5 255t267.5 97q164 0 273.5 -97t109.5 -259q0 -100 -39 -170q-33 -57 -114 -131q96 -74 135 -201q74 160 133 234q86 104 217 153v-399h-27q-4 55 -24 55q-53 0 -119 -98q-53 -84 -70 -150q100 -123 170 -123 q37 0 43 52h27v-324q-137 0 -219 37q-90 41 -168 145q-172 -207 -405 -207q-190 0 -315.5 122t-125.5 311zM283 467q0 -106 65.5 -177t171.5 -71q100 0 180 64.5t80 162.5q0 106 -79.5 183.5t-186.5 77.5q-96 0 -163.5 -72t-67.5 -168zM399 1063q0 -76 50.5 -127t125.5 -51 q74 0 124.5 52t50.5 126q0 82 -47.5 131t-127.5 49t-128 -50t-48 -130z" />
<glyph unicode="'" horiz-adv-x="477" d="M80 1399v43h317v-43q-29 0 -39 -17q-27 -39 -57 -389q-10 -117 -10 -94q0 -55 49 -55v-31h-199v31q49 0 49 55q0 68 -28.5 265.5t-40.5 216t-41 18.5z" />
<glyph unicode="(" horiz-adv-x="575" d="M113 717q0 244 90 481q96 256 264 408l94 -95q-223 -315 -223 -794q0 -244 45 -416q51 -199 178 -377l-94 -96q-168 152 -264 408q-90 238 -90 481z" />
<glyph unicode=")" horiz-adv-x="575" d="M12 -76q223 311 224 793q0 248 -43 418q-51 195 -181 376l97 95q170 -154 266 -408q86 -231 86 -481q0 -246 -88 -481q-96 -256 -264 -408z" />
<glyph unicode="*" horiz-adv-x="866" d="M80 1141l80 303l30 -10q0 -63 66 -111q33 -23 123 -61q0 147 -14.5 205.5t-57.5 70.5v41h254v-41q-41 -12 -55 -72.5t-14 -203.5q129 57 158.5 86.5t29.5 87.5l29 10l77 -303l-28 -13q-27 47 -62 48q-35 0 -172 -48q111 -184 158 -184q12 0 31 12l18 -34l-207 -187 l-16 33q20 35 20 53q0 53 -94 224q-92 -166 -92 -224q0 -25 23 -53l-23 -33l-205 187l19 34q20 -12 32 -12q51 0 154 182q-133 49 -170 50q-35 0 -61 -48z" />
<glyph unicode="+" horiz-adv-x="1318" d="M197 547v340h24q14 -68 55 -68h302v379q0 49 -54 68v28h273v-28q-55 -25 -56 -72v-375h301q41 0 56 68h24v-340h-24q-14 68 -56 67h-301v-374q0 -55 56 -72v-29h-273v31q53 14 54 66v378h-302q-41 0 -55 -67h-24z" />
<glyph unicode="," horiz-adv-x="528" d="M115 150q0 66 35.5 117.5t99.5 51.5q82 0 127 -86q37 -69 37 -159q0 -221 -209 -404l-39 68q70 57 99.5 109.5t41.5 140.5q-41 -12 -57 -13q-61 0 -100 58q-35 51 -35 117z" />
<glyph unicode="-" horiz-adv-x="382" d="M0 408v362h27q14 -68 59 -68h209q47 0 61 68h27v-362h-27q-14 68 -61 67h-209q-45 0 -59 -67h-27z" />
<glyph unicode="." horiz-adv-x="528" d="M115 147q0 66 43 119t106 53q66 0 108 -52t42 -120q0 -66 -43 -119t-107 -53q-61 0 -105 54.5t-44 117.5z" />
<glyph unicode="/" horiz-adv-x="1306" d="M57 0v33q18 4 37 10q35 12 115 141l661 1067q37 59 37 86q0 49 -51 64v33h393v-33q-45 -10 -84 -60q-12 -14 -59 -90l-676 -1091q-31 -49 -31 -72q0 -41 52 -55v-33h-394z" />
<glyph unicode="0" d="M70 719q0 291 123 493q145 246 417 246q276 0 424 -250q123 -204 123 -501q0 -213 -72 -383q-84 -199 -247 -291q-102 -57 -226 -58q-270 0 -419 248q-123 207 -123 496zM326 727q0 -170 59 -309q80 -182 227 -182q150 0 228 176q61 137 61 307q0 182 -57 315 q-76 180 -234 180q-147 0 -225 -180q-59 -137 -59 -307z" />
<glyph unicode="1" d="M371 915v383h26q12 -63 43 -63q25 0 97 39v49q0 63 -54 78v33h351v-33q-53 -14 -54 -78v-1214q0 -55 54 -76v-33h-351v33q53 20 54 71v920l-80 -31q-45 -18 -60 -78h-26z" />
<glyph unicode="2" d="M70 0q0 301 159 471q88 96 420 285q188 109 189 266q0 193 -205 192q-127 0 -228.5 -72.5t-101.5 -148.5q0 -16 12 -65l-16 -25l-225 303l20 21q25 -12 49 -13q12 0 84 64q82 74 90 80q147 100 345 100q203 0 317.5 -119.5t114.5 -322.5q0 -180 -84 -292t-232 -194 l-129 -71q-78 -39 -155 -80q-92 -53 -121 -117v-4h698q45 0 64 68h24v-394h-24q-18 68 -64 68h-893q-41 0 -55 -13.5t-21 -54.5h-26q-6 39 -6 68z" />
<glyph unicode="3" d="M37 111l135 389l27 -11q-8 -20 -9 -36q0 -113 172 -181q135 -53 271 -53q115 0 188 49q86 55 86 164q0 207 -268 207q-70 0 -94 -8q-47 -14 -58 -66h-24v350h24q12 -53 56 -67q23 -8 92 -8q248 0 248 190q0 184 -250 184q-106 0 -219 -45q-141 -55 -142 -143 q0 -27 11 -47l-21 -21l-192 297l20 21q31 -18 45 -19q16 0 47 25q217 176 469 176q203 0 328 -102q133 -111 133 -309q0 -186 -143 -295q190 -89 190 -318q0 -221 -155 -344q-141 -115 -369 -115q-229 0 -418 113q-78 47 -98 47q-25 0 -58 -39z" />
<glyph unicode="4" d="M61 172v307l570 799q39 55 39 78q0 39 -45 45v33h450v-33q-53 -14 -53 -78v-844h63q45 0 60 66h26v-373h-26q-12 57 -37 66q-8 4 -86 4v-133q0 -55 53 -76v-33h-350v33q53 23 53 76v133h-610q-41 0 -57.5 -13.5t-22.5 -56.5h-27zM334 479h444v629z" />
<glyph unicode="5" d="M47 170l203 334l22 -17q-6 -29 -6 -47q0 -92 148 -161q125 -59 231 -60q125 0 202 69.5t77 194.5q0 121 -78 188.5t-201 67.5q-74 0 -156 -26q-106 -33 -106 -90q0 -18 12 -43l-20 -23l-297 371l20 26q33 0 43 17q6 10 6 47v301q0 66 -53 82v33h910q47 0 63 69h27v-381 h-27q-18 68 -63 68h-656v-309q139 86 322 86q229 0 366.5 -127.5t137.5 -354.5q0 -240 -141.5 -375t-381.5 -135q-215 0 -350 91q-43 33 -88 65q-59 41 -94 41q-18 0 -49 -22z" />
<glyph unicode="6" d="M80 702q0 307 147 519q168 238 465 237q98 0 172 -20q61 -16 178 -78q35 -18 58 -19q27 0 43 29l22 -18l-147 -344l-25 14q4 29 4 31q0 49 -30 80q-45 43 -129 69q-76 25 -146 25q-180 0 -282 -144q-90 -127 -91 -313q160 178 373 178q209 0 340 -135t131 -344 q0 -223 -148.5 -358.5t-373.5 -135.5q-289 0 -436 230q-125 193 -125 497zM371 461q0 -115 84 -185q78 -66 194 -65q115 0 195 67.5t80 180.5q0 123 -77 186.5t-202 63.5q-119 0 -196.5 -65.5t-77.5 -182.5z" />
<glyph unicode="7" d="M70 1130v373h26q16 -70 64 -69h909q47 0 61 69h27v-276l-518 -1063q-31 -63 -31 -80q0 -29 47 -51v-33h-409v33q63 25 116 131l512 1034h-714q-45 0 -64 -68h-26z" />
<glyph unicode="8" d="M63 428q0 258 256 338q-207 102 -206 307q0 203 157 303q131 82 346 82t345 -82q156 -100 155 -303q0 -205 -207 -307q256 -80 256 -338q0 -233 -164 -350q-143 -102 -385 -103q-246 0 -389 101q-164 117 -164 352zM319 432q0 -111 97 -168q80 -45 198 -45q121 0 199 45 q96 55 96 168q0 115 -94 172q-78 45 -201 45t-200 -45q-94 -57 -95 -172zM354 1061q0 -90 90 -135q72 -37 170 -37q100 0 170 35q90 45 90 135q0 176 -260 176q-100 0 -170 -37q-90 -45 -90 -137z" />
<glyph unicode="9" d="M63 84l148 342l25 -14q-4 -27 -5 -41q0 -72 121 -123q96 -41 183 -41q162 0 267 122t105 335q-158 -176 -372 -177q-209 0 -338 134.5t-129 343.5q0 223 146 358t372 135q295 0 440 -225q121 -191 121 -502q0 -305 -148 -516q-168 -240 -462 -240q-90 0 -170 23 q-66 18 -183 78q-37 18 -53 18q-12 0 -25 -10q-16 -16 -20 -18zM303 975q0 -117 82 -184q76 -63 195 -64q115 0 195.5 65.5t80.5 178.5q0 119 -80 188q-76 63 -196 64q-117 0 -195 -64q-82 -70 -82 -184z" />
<glyph unicode=":" horiz-adv-x="528" d="M127 147q0 66 37 119t100 53q66 0 101.5 -52t35.5 -120q0 -66 -36.5 -119t-100.5 -53q-61 0 -100 58q-37 51 -37 114zM127 1030q0 68 36 120t101 52q66 0 101.5 -52t35.5 -120q0 -66 -36.5 -119t-100.5 -53q-61 0 -100 57q-37 51 -37 115z" />
<glyph unicode=";" horiz-adv-x="528" d="M127 150q0 66 29 112q33 57 94 57q82 0 121 -86q30 -67 30 -159q0 -231 -196 -404l-39 68q70 57 99.5 109.5t41.5 140.5q-41 -12 -57 -13q-61 0 -94 60q-29 49 -29 115zM127 1030q0 68 36 120t101 52q66 0 101.5 -52t35.5 -120q0 -66 -36.5 -119t-100.5 -53 q-61 0 -100 57q-37 51 -37 115z" />
<glyph unicode="&#x3c;" horiz-adv-x="860" d="M57 590v254l746 485v-303l-488 -307l488 -311v-304z" />
<glyph unicode="=" horiz-adv-x="1318" d="M197 303v340h26q14 -68 53 -68h766q39 0 54 68h26v-340h-26q-14 68 -54 68h-766q-39 0 -53 -68h-26zM197 791v339h26q14 -68 53 -67h766q39 0 54 67h26v-339h-26q-14 68 -54 67h-766q-39 0 -53 -67h-26z" />
<glyph unicode="&#x3e;" horiz-adv-x="860" d="M57 104v304l488 311l-488 307v303l746 -485v-254z" />
<glyph unicode="?" horiz-adv-x="860" d="M47 1294l23 19q23 -14 34 -15q16 0 72 41q70 55 115 78q80 41 160 41q137 0 218 -89t81 -228q0 -150 -148 -334q-35 -43 -47 -59q-25 -37 -35 -66q-10 -37 -10 -92q0 -45 49 -64v-32h-276v32q41 6 57 95q6 49 31 145q12 33 90 154q59 94 59 163q0 152 -131 152 q-61 0 -119 -43q-63 -45 -63 -105q0 -16 8 -38l-22 -19zM297 147q0 63 38 117.5t99 54.5q66 0 101.5 -52t35.5 -120q0 -66 -36.5 -119t-100.5 -53q-61 0 -100 58q-37 51 -37 114z" />
<glyph unicode="@" horiz-adv-x="1644" d="M88 702q0 324 224.5 539t549.5 215q281 0 475 -170q201 -179 201 -455q0 -178 -74 -307q-92 -158 -256 -157q-94 0 -133 18q-59 27 -71 104q-111 -100 -277 -100q-121 0 -205 66q-92 72 -92 188q0 190 114.5 295.5t307.5 105.5q137 0 240 -102l20 76h133l-88 -375 q-16 -70 -16 -133q0 -31 51 -31q106 0 160 111q41 84 41 205q0 219 -158 362t-379 143q-238 0 -430.5 -172t-192.5 -407q0 -236 167 -411t401 -175q377 0 377 101l22 6l66 -246l-23 -6q-27 49 -55 49q-10 0 -33 -6q-203 -53 -334 -53q-307 0 -520 208.5t-213 513.5zM584 678 q0 -158 172 -158q201 0 264 180q12 36 12 54q0 68 -74 114q-63 43 -135 43q-104 0 -171.5 -64.5t-67.5 -168.5z" />
<glyph unicode="A" horiz-adv-x="1398" d="M0 0v33q53 14 92 112l422 1102q18 49 18 84q0 49 -47 68v35h406v-35q-49 -14 -49 -60q0 -29 16 -69l436 -1106q25 -59 37 -80q27 -41 68 -51v-33h-420v33q53 14 53 65q0 23 -16 66l-76 203h-522l-78 -203q-16 -43 -16 -68q0 -43 57 -63v-33h-381zM492 563h372l-182 504 h-4z" />
<glyph unicode="B" horiz-adv-x="1388" d="M104 0v33q53 23 54 76v1214q0 57 -54 76v35h777q401 0 401 -379q0 -209 -156 -303q191 -92 191 -340q0 -219 -119 -315.5t-309 -96.5h-785zM406 236h428q117 0 167 38q60 45 60 158q0 111 -60 156q-51 39 -167 39h-428v-391zM406 864h442q94 0 139 37t45 129t-45 130 t-139 38h-442v-334z" />
<glyph unicode="C" horiz-adv-x="1443" d="M78 719q0 322 174 524q184 215 502 215q229 0 385 -112q145 -104 170 -105q31 0 45 21l20 -21l-157 -299l-25 21q0 88 -88 155q-70 53 -170 80q-70 18 -152 19q-209 0 -333 -148q-117 -139 -117 -350q0 -213 117 -352q125 -147 333 -148q68 0 140 19q94 25 172 81 q98 72 98 154l25 19l157 -299l-20 -19q-20 27 -39 27q-4 0 -180 -115q-139 -90 -277 -104q-47 -6 -106 -7q-315 0 -500 218q-174 207 -174 526z" />
<glyph unicode="D" horiz-adv-x="1441" d="M104 0v33q53 23 54 76v1214q0 57 -54 76v35h637q623 0 623 -715q0 -719 -623 -719h-637zM406 236h317q387 0 387 483q0 229 -78 342q-92 137 -309 137h-317v-962z" />
<glyph unicode="E" horiz-adv-x="1306" d="M104 0v33q53 23 54 76v1214q0 57 -54 76v35h1022q45 0 60 69h28v-373h-28q-14 68 -60 68h-720v-340h468q45 0 60 66h29v-361h-29q-14 68 -60 68h-468v-395h741q43 0 61 67h25v-371h-25q-18 68 -61 68h-1043z" />
<glyph unicode="F" horiz-adv-x="1251" d="M104 0v33q53 23 54 76v1214q0 57 -54 76v35h1014q47 0 62 69h28v-373h-28q-14 68 -62 68h-712v-342h466q47 0 62 68h29v-363h-29q-14 66 -62 66h-466v-518q0 -55 55 -76v-33h-357z" />
<glyph unicode="G" horiz-adv-x="1472" d="M80 719q0 330 180 530q186 209 512 209q102 0 186 -16.5t197 -79.5q55 -31 80 -31q14 0 41 27l24 -17l-135 -346l-22 19q-4 96 -148 155q-115 47 -229 48q-201 0 -322 -154q-110 -140 -110 -344q0 -213 115 -352q125 -150 329 -150q203 0 346 102v197h-282q-45 0 -60 -65 h-26v331h26q14 -67 59 -67h1h544v-35q-53 -14 -53 -76v-293q0 -59 53 -75v-27q-328 -236 -632 -236q-315 0 -500 220q-174 205 -174 526z" />
<glyph unicode="H" horiz-adv-x="1474" d="M102 0v33q53 20 54 76v1214q0 57 -54 76v35h357v-35q-53 -18 -53 -76v-461h663v461q0 57 -55 76v35h358v-35q-55 -16 -55 -76v-1214q0 -53 55 -76v-33h-358v33q55 20 55 76v518h-663v-518q0 -55 53 -76v-33h-357z" />
<glyph unicode="I" horiz-adv-x="565" d="M104 0v33q53 23 54 76v1214q0 59 -54 76v35h357v-35q-55 -16 -55 -76v-1214q0 -55 55 -76v-33h-357z" />
<glyph unicode="J" horiz-adv-x="1042" d="M0 55l109 363l24 -10q0 -94 113 -146q90 -39 196 -39q131 0 176 76q33 55 33 197v827q0 57 -53 76v35h358v-35q-55 -18 -55 -76v-844q0 -242 -84 -360q-100 -139 -330 -139q-125 0 -211 30q-49 20 -98 39q-61 23 -102 23q-27 0 -51 -29z" />
<glyph unicode="K" horiz-adv-x="1380" d="M104 0v33q53 23 54 76v1214q0 59 -54 76v35h357v-35q-55 -16 -55 -76v-500l475 482q33 33 32 53q0 31 -49 41v35h469v-35q-39 -6 -65.5 -33t-50.5 -55l-453 -457l442 -666q27 -41 82 -116q29 -29 74 -39v-33h-449v33q45 14 45 41q0 14 -40 78l-338 518l-174 -174v-387 q0 -55 55 -76v-33h-357z" />
<glyph unicode="L" horiz-adv-x="1218" d="M104 0v33q53 23 54 76v1214q0 57 -54 76v35h357v-35q-55 -18 -55 -76v-1087h706q47 0 62 67h26v-371h-26q-14 68 -62 68h-1008z" />
<glyph unicode="M" horiz-adv-x="1665" d="M104 0v33q53 23 54 76v1214q0 59 -54 76v35h441v-35q-39 -12 -39 -56q0 -20 12 -49l313 -721l316 709q20 45 20 72q0 43 -41 45v35h435v-35q-55 -16 -56 -76v-1214q0 -53 56 -76v-33h-359v33q53 20 53 76v882l-444 -971l-424 971v-882q0 -55 53 -76v-33h-336z" />
<glyph unicode="N" horiz-adv-x="1499" d="M104 0v33q53 23 54 76v1214q0 59 -54 76v35h392v-35q-39 -8 -39 -45q0 -29 22 -58l633 -821v848q0 57 -53 76v35h338v-35q-53 -18 -54 -76v-1214q0 -55 54 -76v-33h-361v33q35 10 35 47q0 16 -43 72l-641 831v-874q0 -55 53 -76v-33h-336z" />
<glyph unicode="O" horiz-adv-x="1468" d="M74 719q0 317 168 520q180 219 491 219q215 0 377 -118.5t236 -321.5q49 -135 49 -309q0 -311 -172 -516q-182 -217 -490 -218q-135 0 -258 54q-201 86 -305 280q-96 178 -96 410zM332 719q0 -199 98 -340q113 -160 303 -160q188 0 303 156q101 139 101 336 q0 205 -97 346q-111 160 -307 160q-190 0 -301 -160q-100 -139 -100 -338z" />
<glyph unicode="P" horiz-adv-x="1312" d="M102 0v33q53 20 54 76v1214q0 59 -54 76v35h717q229 0 340 -100.5t111 -325.5q0 -426 -451 -426h-413v-473q0 -55 53 -76v-33h-357zM406 819h382q106 0 166 35t60 154q0 113 -58 155q-49 35 -168 35h-382v-379z" />
<glyph unicode="Q" horiz-adv-x="1466" d="M74 719q0 313 168 520q182 219 489 219q213 0 374 -112.5t236 -311.5q51 -135 52 -315q0 -313 -181 -535q53 -74 129 -164q10 -8 27 -8q12 0 37 13l18 -25l-245 -279l-19 25q16 31 17 53q0 23 -146 238q-127 -61 -303 -62q-305 0 -487 224q-166 207 -166 520zM330 719 q0 -199 98 -340q113 -160 303 -160q82 0 156 33q-80 162 -225 205v28q63 59 137 60q68 0 137 -49q37 -27 111 -101q90 140 90 324q0 199 -103 340q-113 158 -303 158t-301 -160q-100 -141 -100 -338z" />
<glyph unicode="R" horiz-adv-x="1392" d="M104 0v33q53 23 54 76v1214q0 57 -54 76v35h717q244 0 353 -91q120 -97 120 -331q0 -354 -313 -416l223 -395q29 -53 60 -105q41 -59 94 -63v-33h-416v33q43 8 43 39q0 23 -39 92l-233 420h-307v-475q0 -55 55 -76v-33h-357zM406 821h387q123 0 176 29q75 41 75 158 q0 119 -73 161q-53 29 -178 29h-387v-377z" />
<glyph unicode="S" horiz-adv-x="1241" d="M74 131l123 352l24 -14q0 -113 162 -186q133 -63 260 -64q102 0 184 41q102 53 103 146q0 86 -78 124q-47 23 -156 37l-131 17q-225 29 -337.5 116.5t-112.5 300.5q0 219 139 340q131 117 354 117q129 0 221 -31q51 -16 103 -41q45 -23 92 -47q68 -34 85 -34h1 q14 0 41 22l23 -14l-136 -338l-22 16q0 39 -8.5 55.5t-40.5 43.5q-156 127 -353 127q-268 0 -268 -166q0 -74 49 -107q25 -16 76 -29q59 -14 258 -38q215 -27 324 -121q121 -107 121 -316q0 -223 -158 -350q-145 -115 -377 -115q-227 0 -451 136q-47 29 -57 28q-8 0 -33 -24 z" />
<glyph unicode="T" horiz-adv-x="1163" d="M12 1130v373h27q16 -69 60 -69h1h961q47 0 61 69h29v-373h-29q-14 68 -61 68h-354v-1089q0 -55 53 -76v-33h-359v33q53 23 54 76v1089h-355q-43 0 -61 -68h-27z" />
<glyph unicode="U" horiz-adv-x="1415" d="M86 1399v35h360v-35q-55 -18 -55 -76v-713q0 -145 27 -225q41 -119 151 -149q61 -16 150 -17q92 0 153 17q174 47 175 362v725q0 57 -54 76v35h336v-35q-51 -18 -51 -76v-803q0 -303 -132 -424t-437 -121q-299 0 -430 123q-137 125 -138 422v803q0 57 -55 76z" />
<glyph unicode="V" horiz-adv-x="1312" d="M-12 1399v35h407v-35q-55 -12 -55 -58q0 -25 20 -81l302 -844l307 844q18 51 18 81q0 45 -55 58v35h393v-35q-45 -8 -64.5 -52t-35.5 -87l-400 -1076q-24 -63 -24 -86q0 -57 53 -65v-33h-397v33q55 8 55 63q0 23 -25 88l-399 1076q-14 45 -29 88q-23 43 -71 51z" />
<glyph unicode="W" horiz-adv-x="1964" d="M-6 1399v35h397v-35q-51 -12 -51 -60q0 -27 16 -82l224 -747l239 747q23 70 23 82q0 47 -58 60v35h416v-35q-55 -18 -55 -68q0 -20 16 -74l230 -749l227 749q18 61 18 78q0 51 -61 64v35h395v-35q-61 -16 -100 -142l-330 -1060q-24 -77 -24 -99q0 -49 61 -65v-33h-375v33 q57 14 58 67q0 18 -25 97l-254 811l-256 -811q-27 -84 -27 -97q0 -47 62 -67v-33h-369v33q57 16 58 71q0 12 -25 93l-330 1060q-14 47 -45 117q-18 25 -55 25z" />
<glyph unicode="X" horiz-adv-x="1296" d="M6 0v33q14 0 29 4q29 8 117 147l346 547l-318 520q-29 49 -57 97q-35 47 -94 51v35h463v-35q-51 -14 -52 -62q0 -27 37 -86l178 -288l185 288q41 63 41 92q0 45 -60 56v35h449v-35q-63 -4 -105 -78q-16 -27 -43 -70l-329 -503l348 -564q53 -86 59 -94q37 -47 90 -57v-33 h-454v33q51 16 51 55q0 23 -31 72l-221 354l-211 -342q-35 -57 -35 -80q0 -53 57 -59v-33h-440z" />
<glyph unicode="Y" horiz-adv-x="1222" d="M-25 1399v35h453v-35q-57 -10 -57 -62q0 -23 35 -86l208 -383l211 383q35 63 35 86q0 51 -55 62v35h442v-35q-61 -10 -139 -148l-371 -651v-491q0 -53 54 -76v-33h-359v33q53 23 53 76v491l-368 651q-39 68 -58 90q-39 49 -84 58z" />
<glyph unicode="Z" horiz-adv-x="1224" d="M68 0v74l665 1124h-559q-45 0 -59 -68h-29v373h29q14 -69 58 -69h1h975v-60l-676 -1138h598q43 0 62 67h24v-371h-24q-18 68 -62 68h-1003z" />
<glyph unicode="[" horiz-adv-x="577" d="M111 -88q55 20 55 72v1466q0 45 -55 100h360q47 0 66 68h22v-281h-22q-14 66 -66 66h-123v-1372h115q55 0 74 69h22v-280h-22q-16 68 -66 67h-360v25z" />
<glyph unicode="\" horiz-adv-x="1306" d="M57 1399v35h394v-35q-51 -14 -52 -62q0 -23 39 -86l662 -1067q53 -88 59 -94q37 -47 90 -57v-33h-393v33q49 16 49 55q0 25 -28 72l-676 1091q-20 37 -43 74q-29 49 -54 61q-14 8 -47 13z" />
<glyph unicode="]" horiz-adv-x="577" d="M20 100h25q14 -70 74 -69h110v1372h-123q-51 0 -61 -66h-25v281h25q14 -68 61 -68h361v-26q-53 -18 -53 -74v-1466q0 -53 53 -72v-25h-361q-49 0 -61 -67h-25v280z" />
<glyph unicode="^" horiz-adv-x="860" d="M29 760l268 682h270l264 -682h-215l-186 475l-184 -475h-217z" />
<glyph unicode="_" horiz-adv-x="860" d="M0 -127h860v-180h-860v180z" />
<glyph unicode="`" horiz-adv-x="860" d="M207 1583v37h256v-37q-25 0 -25 -16t13 -54l47 -139q12 -37 43 -37v-32h-181v32q20 0 21 13q0 12 -14 34l-111 170q-18 29 -49 29z" />
<glyph unicode="a" horiz-adv-x="1400" d="M0 0v33q53 14 92 112l422 1102q18 49 18 84q0 49 -47 68v35h406v-35q-49 -14 -49 -60q0 -29 16 -69l436 -1106q25 -59 37 -80q27 -41 68 -51v-33h-420v33q53 14 53 65q0 23 -16 66l-76 203h-522l-78 -203q-16 -43 -16 -68q0 -43 57 -63v-33h-381zM492 563h372l-182 504 h-4z" />
<glyph unicode="b" horiz-adv-x="1388" d="M104 0v33q53 23 54 76v1214q0 57 -54 76v35h777q401 0 401 -379q0 -209 -156 -303q191 -92 191 -340q0 -219 -119 -315.5t-309 -96.5h-785zM406 236h428q117 0 167 38q60 45 60 158q0 111 -60 156q-51 39 -167 39h-428v-391zM406 864h442q94 0 139 37t45 129t-45 130 t-139 38h-442v-334z" />
<glyph unicode="c" horiz-adv-x="1443" d="M78 719q0 322 174 524q184 215 502 215q229 0 385 -112q145 -104 170 -105q31 0 45 21l20 -21l-157 -299l-25 21q0 88 -88 155q-70 53 -170 80q-70 18 -152 19q-209 0 -333 -148q-117 -139 -117 -350q0 -213 117 -352q125 -147 333 -148q68 0 140 19q94 25 172 81 q98 72 98 154l25 19l157 -299l-20 -19q-20 27 -39 27q-4 0 -180 -115q-139 -90 -277 -104q-47 -6 -106 -7q-315 0 -500 218q-174 207 -174 526z" />
<glyph unicode="d" horiz-adv-x="1441" d="M104 0v33q53 23 54 76v1214q0 57 -54 76v35h637q623 0 623 -715q0 -719 -623 -719h-637zM406 236h317q387 0 387 483q0 229 -78 342q-92 137 -309 137h-317v-962z" />
<glyph unicode="e" horiz-adv-x="1306" d="M104 0v33q53 23 54 76v1214q0 57 -54 76v35h1022q45 0 60 69h28v-373h-28q-14 68 -60 68h-720v-340h468q45 0 60 66h29v-361h-29q-14 68 -60 68h-468v-395h741q43 0 61 67h25v-371h-25q-18 68 -61 68h-1043z" />
<glyph unicode="f" horiz-adv-x="1251" d="M104 0v33q53 23 54 76v1214q0 57 -54 76v35h1014q47 0 62 69h28v-373h-28q-14 68 -62 68h-712v-342h466q47 0 62 68h29v-363h-29q-14 66 -62 66h-466v-518q0 -55 55 -76v-33h-357z" />
<glyph unicode="g" horiz-adv-x="1472" d="M80 719q0 330 180 530q186 209 512 209q102 0 186 -16.5t197 -79.5q55 -31 80 -31q14 0 41 27l24 -17l-135 -346l-22 19q-4 96 -148 155q-115 47 -229 48q-201 0 -322 -154q-110 -140 -110 -344q0 -213 115 -352q125 -150 329 -150q203 0 346 102v197h-282q-45 0 -60 -65 h-26v331h26q14 -67 59 -67h1h544v-35q-53 -14 -53 -76v-293q0 -59 53 -75v-27q-328 -236 -632 -236q-315 0 -500 220q-174 205 -174 526z" />
<glyph unicode="h" horiz-adv-x="1474" d="M102 0v33q53 20 54 76v1214q0 57 -54 76v35h357v-35q-53 -18 -53 -76v-461h663v461q0 57 -55 76v35h358v-35q-55 -16 -55 -76v-1214q0 -53 55 -76v-33h-358v33q55 20 55 76v518h-663v-518q0 -55 53 -76v-33h-357z" />
<glyph unicode="i" horiz-adv-x="565" d="M104 0v33q53 23 54 76v1214q0 59 -54 76v35h357v-35q-55 -16 -55 -76v-1214q0 -55 55 -76v-33h-357z" />
<glyph unicode="j" horiz-adv-x="1042" d="M0 55l109 363l24 -10q0 -94 113 -146q90 -39 196 -39q131 0 176 76q33 55 33 197v827q0 57 -53 76v35h358v-35q-55 -18 -55 -76v-844q0 -242 -84 -360q-100 -139 -330 -139q-125 0 -211 30q-49 20 -98 39q-61 23 -102 23q-27 0 -51 -29z" />
<glyph unicode="k" horiz-adv-x="1380" d="M104 0v33q53 23 54 76v1214q0 59 -54 76v35h357v-35q-55 -16 -55 -76v-500l475 482q33 33 32 53q0 31 -49 41v35h469v-35q-39 -6 -65.5 -33t-50.5 -55l-453 -457l442 -666q27 -41 82 -116q29 -29 74 -39v-33h-449v33q45 14 45 41q0 14 -40 78l-338 518l-174 -174v-387 q0 -55 55 -76v-33h-357z" />
<glyph unicode="l" horiz-adv-x="1218" d="M104 0v33q53 23 54 76v1214q0 57 -54 76v35h357v-35q-55 -18 -55 -76v-1087h706q47 0 62 67h26v-371h-26q-14 68 -62 68h-1008z" />
<glyph unicode="m" horiz-adv-x="1665" d="M104 0v33q53 23 54 76v1214q0 59 -54 76v35h441v-35q-39 -12 -39 -56q0 -20 12 -49l313 -721l316 709q20 45 20 72q0 43 -41 45v35h435v-35q-55 -16 -56 -76v-1214q0 -53 56 -76v-33h-359v33q53 20 53 76v882l-444 -971l-424 971v-882q0 -55 53 -76v-33h-336z" />
<glyph unicode="n" horiz-adv-x="1499" d="M104 0v33q53 23 54 76v1214q0 59 -54 76v35h392v-35q-39 -8 -39 -45q0 -29 22 -58l633 -821v848q0 57 -53 76v35h338v-35q-53 -18 -54 -76v-1214q0 -55 54 -76v-33h-361v33q35 10 35 47q0 16 -43 72l-641 831v-874q0 -55 53 -76v-33h-336z" />
<glyph unicode="o" horiz-adv-x="1468" d="M74 719q0 317 168 520q180 219 491 219q215 0 377 -118.5t236 -321.5q49 -135 49 -309q0 -311 -172 -516q-182 -217 -490 -218q-135 0 -258 54q-201 86 -305 280q-96 178 -96 410zM332 719q0 -199 98 -340q113 -160 303 -160q188 0 303 156q101 139 101 336 q0 205 -97 346q-111 160 -307 160q-190 0 -301 -160q-100 -139 -100 -338z" />
<glyph unicode="p" horiz-adv-x="1312" d="M102 0v33q53 20 54 76v1214q0 59 -54 76v35h717q229 0 340 -100.5t111 -325.5q0 -426 -451 -426h-413v-473q0 -55 53 -76v-33h-357zM406 819h382q106 0 166 35t60 154q0 113 -58 155q-49 35 -168 35h-382v-379z" />
<glyph unicode="q" horiz-adv-x="1466" d="M74 719q0 313 168 520q182 219 489 219q213 0 374 -112.5t236 -311.5q51 -135 52 -315q0 -313 -181 -535q53 -74 129 -164q10 -8 27 -8q12 0 37 13l18 -25l-245 -279l-19 25q16 31 17 53q0 23 -146 238q-127 -61 -303 -62q-305 0 -487 224q-166 207 -166 520zM330 719 q0 -199 98 -340q113 -160 303 -160q82 0 156 33q-80 162 -225 205v28q63 59 137 60q68 0 137 -49q37 -27 111 -101q90 140 90 324q0 199 -103 340q-113 158 -303 158t-301 -160q-100 -141 -100 -338z" />
<glyph unicode="r" horiz-adv-x="1392" d="M104 0v33q53 23 54 76v1214q0 57 -54 76v35h717q244 0 353 -91q120 -97 120 -331q0 -354 -313 -416l223 -395q29 -53 60 -105q41 -59 94 -63v-33h-416v33q43 8 43 39q0 23 -39 92l-233 420h-307v-475q0 -55 55 -76v-33h-357zM406 821h387q123 0 176 29q75 41 75 158 q0 119 -73 161q-53 29 -178 29h-387v-377z" />
<glyph unicode="s" horiz-adv-x="1241" d="M74 131l123 352l24 -14q0 -113 162 -186q133 -63 260 -64q102 0 184 41q102 53 103 146q0 86 -78 124q-47 23 -156 37l-131 17q-225 29 -337.5 116.5t-112.5 300.5q0 219 139 340q131 117 354 117q129 0 221 -31q51 -16 103 -41q45 -23 92 -47q68 -34 85 -34h1 q14 0 41 22l23 -14l-136 -338l-22 16q0 39 -8.5 55.5t-40.5 43.5q-156 127 -353 127q-268 0 -268 -166q0 -74 49 -107q25 -16 76 -29q59 -14 258 -38q215 -27 324 -121q121 -107 121 -316q0 -223 -158 -350q-145 -115 -377 -115q-227 0 -451 136q-47 29 -57 28q-8 0 -33 -24 z" />
<glyph unicode="t" horiz-adv-x="1163" d="M12 1130v373h27q16 -69 60 -69h1h961q47 0 61 69h29v-373h-29q-14 68 -61 68h-354v-1089q0 -55 53 -76v-33h-359v33q53 23 54 76v1089h-355q-43 0 -61 -68h-27z" />
<glyph unicode="u" horiz-adv-x="1415" d="M86 1399v35h360v-35q-55 -18 -55 -76v-713q0 -145 27 -225q41 -119 151 -149q61 -16 150 -17q92 0 153 17q174 47 175 362v725q0 57 -54 76v35h336v-35q-51 -18 -51 -76v-803q0 -303 -132 -424t-437 -121q-299 0 -430 123q-137 125 -138 422v803q0 57 -55 76z" />
<glyph unicode="v" horiz-adv-x="1312" d="M-12 1399v35h407v-35q-55 -12 -55 -58q0 -25 20 -81l302 -844l307 844q18 51 18 81q0 45 -55 58v35h393v-35q-45 -8 -64.5 -52t-35.5 -87l-400 -1076q-24 -63 -24 -86q0 -57 53 -65v-33h-397v33q55 8 55 63q0 23 -25 88l-399 1076q-14 45 -29 88q-23 43 -71 51z" />
<glyph unicode="w" horiz-adv-x="1964" d="M-6 1399v35h397v-35q-51 -12 -51 -60q0 -27 16 -82l224 -747l239 747q23 70 23 82q0 47 -58 60v35h416v-35q-55 -18 -55 -68q0 -20 16 -74l230 -749l227 749q18 61 18 78q0 51 -61 64v35h395v-35q-61 -16 -100 -142l-330 -1060q-24 -77 -24 -99q0 -49 61 -65v-33h-375v33 q57 14 58 67q0 18 -25 97l-254 811l-256 -811q-27 -84 -27 -97q0 -47 62 -67v-33h-369v33q57 16 58 71q0 12 -25 93l-330 1060q-14 47 -45 117q-18 25 -55 25z" />
<glyph unicode="x" horiz-adv-x="1296" d="M6 0v33q14 0 29 4q29 8 117 147l346 547l-318 520q-29 49 -57 97q-35 47 -94 51v35h463v-35q-51 -14 -52 -62q0 -27 37 -86l178 -288l185 288q41 63 41 92q0 45 -60 56v35h449v-35q-63 -4 -105 -78q-16 -27 -43 -70l-329 -503l348 -564q53 -86 59 -94q37 -47 90 -57v-33 h-454v33q51 16 51 55q0 23 -31 72l-221 354l-211 -342q-35 -57 -35 -80q0 -53 57 -59v-33h-440z" />
<glyph unicode="y" horiz-adv-x="1222" d="M-25 1399v35h453v-35q-57 -10 -57 -62q0 -23 35 -86l208 -383l211 383q35 63 35 86q0 51 -55 62v35h442v-35q-61 -10 -139 -148l-371 -651v-491q0 -53 54 -76v-33h-359v33q53 23 53 76v491l-368 651q-39 68 -58 90q-39 49 -84 58z" />
<glyph unicode="z" horiz-adv-x="1224" d="M68 0v74l665 1124h-559q-45 0 -59 -68h-29v373h29q14 -69 58 -69h1h975v-60l-676 -1138h598q43 0 62 67h24v-371h-24q-18 68 -62 68h-1003z" />
<glyph unicode="{" horiz-adv-x="575" d="M-49 553v330h20q8 -51 25 -62q10 -6 72 -6q31 0 42 28.5t11 151.5v391q0 61 47 112.5t104 51.5h195q57 0 72 68h22v-295h-22q-8 39 -21.5 53.5t-50.5 14.5h-70q-90 0 -90 -152v-371q0 -82 -67 -149q68 -72 67 -152v-374q0 -150 90 -150h70q57 0 72 68h22v-291h-22 q-14 68 -72 67h-195q-53 0 -102 51.5t-49 108.5v391q0 94 -2 109q-8 76 -51 76h-52q-35 0 -45 -70h-20z" />
<glyph unicode="|" horiz-adv-x="860" d="M307 -356v1790h246v-1790h-246z" />
<glyph unicode="}" horiz-adv-x="575" d="M12 111h23q14 -68 74 -68h67q90 0 90 150v374q0 82 70 152q-70 66 -70 149v371q0 152 -90 152h-67q-59 0 -74 -68h-23v295h23q14 -68 74 -68h194q59 0 105.5 -52t46.5 -112v-391q0 -119 11 -147.5t38 -32.5q-4 0 55 0q33 0 43 68h21v-330h-21q-8 53 -27 63q-10 6 -69 7 q-51 0 -51 -185v-391q0 -59 -47.5 -109.5t-104.5 -50.5h-194q-59 0 -74 -67h-23v291z" />
<glyph unicode="~" horiz-adv-x="1146" d="M143 756l17 28q27 -10 45 -10q16 0 81.5 76t145.5 76q61 0 163.5 -61.5t156.5 -61.5q27 0 48 24.5t21 51.5q0 23 -22 47l24 26l178 -202l-20 -29q-49 12 -45 12q-8 0 -72.5 -82t-130.5 -82q-57 0 -169.5 61.5t-166.5 61.5q-23 0 -46 -25.5t-23 -48.5q0 -10 16 -49 l-18 -20z" />
<glyph unicode="&#xa4;" horiz-adv-x="1648" d="M47 184l23 25q29 -20 53 -21q20 0 47 27l106 109q-113 162 -112 393q0 229 112 397l-106 105q-25 25 -47 24q-27 0 -53 -16l-23 22l246 248l22 -24q-16 -27 -16 -52q0 -29 23 -51l129 -127q152 86 374 86q213 0 377 -86l125 127q27 27 27 51q0 18 -23 52l27 24l248 -248 l-25 -22q-31 16 -51 16q-27 0 -51 -24l-107 -105q113 -164 113 -397q0 -236 -115 -395l109 -107q27 -27 49 -27q20 0 53 21l25 -25l-248 -247l-27 26q23 33 23 49q0 25 -27 51l-125 125q-174 -84 -377 -84q-209 0 -376 84l-127 -125q-23 -23 -23 -51q0 -23 16 -49l-22 -26z M451 719q0 -162 105.5 -276.5t266.5 -114.5q164 0 269.5 110.5t105.5 274.5q0 166 -104.5 280.5t-270.5 114.5q-160 0 -266 -113.5t-106 -275.5z" />
<glyph unicode="&#xa6;" horiz-adv-x="860" d="M307 330h246v-686h-246v686zM307 680v754h246v-754h-246z" />
<glyph unicode="&#xa7;" horiz-adv-x="1155" d="M80 -12l147 278l19 -14q-6 -25 -6 -37q0 -84 149 -139q121 -43 223 -43q104 0 183 39q100 51 100 143q0 59 -51 87t-195 46l-168 23q-340 45 -340 321q0 174 138 279q-137 90 -138 278q0 358 414 359q92 0 170 -19q51 -12 197 -71q25 -10 45 -11q12 0 30 27l23 -12 l-115 -291l-20 10q4 14 4 37q0 61 -137 96q-96 25 -187 25q-250 0 -250 -139q0 -92 197 -119q297 -39 369 -70q197 -84 196 -315q0 -188 -123 -277q72 -61 97 -110q26 -56 26 -146q0 -203 -133 -305q-119 -90 -328 -90q-117 0 -221 30.5t-188 102.5q-45 39 -66 39 q-20 0 -41 -27zM315 743q0 -109 183 -139l241 -41q156 71 156 180q0 72 -70 105q-35 16 -133 31l-221 32q-156 -74 -156 -168z" />
<glyph unicode="&#xa9;" horiz-adv-x="1900" d="M96 719q0 348 262 553q238 186 596 186q367 0 602 -188q256 -205 256 -561q0 -348 -260 -549q-240 -184 -598 -185q-362 0 -600 187q-258 203 -258 557zM244 717q0 -289 215 -461q199 -158 495 -158q295 0 494 156q219 168 219 455q0 297 -213 469q-197 160 -500 159 q-293 0 -493 -159q-217 -174 -217 -461zM455 719q0 209 151 332q139 113 352 112q94 0 170 -20q29 -8 138 -61l108 -52q6 0 27 17l29 -17l-127 -190l-25 18q0 74 -117 115q-86 31 -178 31q-139 0 -229 -72q-98 -78 -99 -213q0 -137 99 -215q90 -74 229 -74q88 0 178 33 q117 41 117 112l25 19l127 -186l-29 -21q-18 18 -29 19q-8 0 -72 -35q-78 -43 -79 -43q-117 -55 -263 -56q-215 0 -354 115q-150 123 -149 332z" />
<glyph unicode="&#xab;" horiz-adv-x="837" d="M104 610l162 424h146l-164 -424l164 -426h-146zM403 610l164 424h146l-168 -424l168 -426h-146z" />
<glyph unicode="&#xac;" horiz-adv-x="860" d="M57 354v269h746v-623h-238v354h-508z" />
<glyph unicode="&#xad;" horiz-adv-x="382" d="M0 408v362h27q14 -68 59 -68h209q47 0 61 68h27v-362h-27q-14 68 -61 67h-209q-45 0 -59 -67h-27z" />
<glyph unicode="&#xae;" horiz-adv-x="1910" d="M96 719q0 342 264 549q242 190 594 190t596 -194q262 -211 262 -555q0 -342 -264 -547q-242 -186 -594 -187q-354 0 -596 191q-262 207 -262 553zM244 717q0 -293 215 -463q197 -156 495 -156q295 0 494 156q219 168 219 455q0 299 -211 471q-195 158 -502 157 q-299 0 -495 -157q-215 -172 -215 -463zM508 287v32q39 8 39 37v719q0 31 -39 41v31h543q178 0 247 -49q100 -70 101 -211q0 -211 -223 -248l155 -223q35 -49 47 -62q31 -33 68 -35v-32h-320v32q31 0 31 15q0 14 -27 53l-167 244h-218v-275q0 -31 41 -37v-32h-278zM745 786 h281q88 0 119 13q57 20 57 92q0 68 -44 84t-132 16h-281v-205z" />
<glyph unicode="&#xb0;" horiz-adv-x="792" d="M127 1135q0 139 63 231q76 109 207 109t205 -109q66 -96 66 -233q0 -133 -68 -228q-76 -106 -203 -106q-131 0 -204 106q-66 92 -66 230zM229 1135q0 -78 43 -144q49 -72 125 -71q74 0 123 71q45 63 45 139q0 84 -43 150q-47 74 -127 74q-76 0 -123 -74q-43 -66 -43 -145 z" />
<glyph unicode="&#xb1;" horiz-adv-x="1318" d="M197 141h24q14 -66 55 -65h766q41 0 56 65h24v-340h-24q-14 68 -56 68h-766q-41 0 -55 -68h-24v340zM197 547v340h24q14 -68 55 -68h302v379q0 49 -54 68v28h273v-28q-55 -25 -56 -72v-375h301q41 0 56 68h24v-340h-24q-14 68 -56 67h-301v-303q0 -51 56 -71v-29h-273v31 q53 14 54 65v307h-302q-41 0 -55 -67h-24z" />
<glyph unicode="&#xb5;" horiz-adv-x="827" d="M-12 -299q0 39 16 141q41 248 49 570q4 123 4 571h226v-616q0 -268 104 -269q61 0 137 117v768h226v-698q0 -86 6 -115q16 -72 71 -72h39v-37q-49 0 -115.5 -43t-101.5 -43q-49 0 -78 54q-12 25 -32 98q-102 -160 -215 -160q-78 0 -123 53q-33 37 -62 125h-4v-32 q0 -96 53 -301q18 -72 19 -117q0 -45 -30 -81t-75 -36q-115 0 -114 123z" />
<glyph unicode="&#xb6;" horiz-adv-x="1099" d="M35 1061q0 244 198 334q86 39 166 39h654v-35q-55 -18 -56 -88v-1360q0 -72 56 -90v-33h-215v1477h-138v-1477h-217v33q53 16 54 90v717h-150q-51 0 -115 22q-115 41 -178 146q-59 98 -59 225z" />
<glyph unicode="&#xb7;" horiz-adv-x="528" d="M127 532q0 68 35 115q39 55 102 55q66 0 101.5 -52t35.5 -120t-34 -116q-39 -57 -103 -58q-61 0 -100 60q-37 53 -37 116z" />
<glyph unicode="&#xbb;" horiz-adv-x="837" d="M127 184l164 426l-164 424h145l162 -424l-162 -426h-145zM428 184l164 426l-164 424h143l162 -424l-162 -426h-143z" />
<glyph unicode="&#x2000;" horiz-adv-x="810" />
<glyph unicode="&#x2001;" horiz-adv-x="1620" />
<glyph unicode="&#x2002;" horiz-adv-x="810" />
<glyph unicode="&#x2003;" horiz-adv-x="1620" />
<glyph unicode="&#x2004;" horiz-adv-x="540" />
<glyph unicode="&#x2005;" horiz-adv-x="405" />
<glyph unicode="&#x2006;" horiz-adv-x="270" />
<glyph unicode="&#x2007;" horiz-adv-x="270" />
<glyph unicode="&#x2008;" horiz-adv-x="202" />
<glyph unicode="&#x2009;" horiz-adv-x="324" />
<glyph unicode="&#x200a;" horiz-adv-x="90" />
<glyph unicode="&#x2010;" horiz-adv-x="382" d="M0 408v362h27q14 -68 59 -68h209q47 0 61 68h27v-362h-27q-14 68 -61 67h-209q-45 0 -59 -67h-27z" />
<glyph unicode="&#x2011;" horiz-adv-x="382" d="M0 408v362h27q14 -68 59 -68h209q47 0 61 68h27v-362h-27q-14 68 -61 67h-209q-45 0 -59 -67h-27z" />
<glyph unicode="&#x2012;" horiz-adv-x="382" d="M0 408v362h27q14 -68 59 -68h209q47 0 61 68h27v-362h-27q-14 68 -61 67h-209q-45 0 -59 -67h-27z" />
<glyph unicode="&#x2013;" horiz-adv-x="860" d="M45 410v356h27q14 -66 61 -66h594q47 0 61 66h27v-356h-27q-14 68 -61 67h-594q-47 0 -61 -67h-27z" />
<glyph unicode="&#x2014;" horiz-adv-x="1722" d="M0 410v356h27q18 -66 59 -66h1548q45 0 60 66h28v-356h-28q-14 68 -60 67h-1548q-41 0 -59 -67h-27z" />
<glyph unicode="&#x2018;" horiz-adv-x="528" d="M127 1057q0 231 195 401l40 -67q-70 -57 -100.5 -109.5t-42.5 -138.5q39 12 60 12q63 0 96 -59q26 -47 26 -115q0 -170 -125 -170q-80 0 -118 88q-31 68 -31 158z" />
<glyph unicode="&#x2019;" horiz-adv-x="528" d="M127 1290q0 66 27 113q35 55 96 55q82 0 121 -86q30 -66 30 -158q0 -233 -196 -403l-39 68q119 94 141 247q-41 -12 -57 -12q-61 0 -94 60q-29 49 -29 116z" />
<glyph unicode="&#x201a;" horiz-adv-x="528" d="M127 150q0 66 29 112q33 57 94 57q82 0 121 -86q30 -67 30 -159q0 -231 -196 -404l-39 68q70 57 99.5 109.5t41.5 140.5q-41 -12 -57 -13q-61 0 -94 60q-29 49 -29 115z" />
<glyph unicode="&#x201c;" horiz-adv-x="929" d="M127 1057q0 231 195 401l40 -67q-70 -57 -100.5 -109.5t-42.5 -138.5q39 12 60 12q63 0 96 -59q26 -47 26 -115q0 -170 -125 -170q-80 0 -118 88q-31 68 -31 158zM528 1057q0 231 195 401l41 -67q-121 -98 -141 -248q37 12 59 12q121 0 121 -174q0 -68 -27 -115 q-33 -55 -96 -55q-82 0 -121 88q-31 66 -31 158z" />
<glyph unicode="&#x201d;" horiz-adv-x="929" d="M127 1290q0 66 27 113q35 55 96 55q82 0 121 -86q30 -66 30 -158q0 -233 -196 -403l-39 68q119 94 141 247q-41 -12 -57 -12q-61 0 -94 60q-29 49 -29 116zM528 1290q0 66 27 113q35 55 96 55q82 0 121 -86q31 -66 31 -158q0 -233 -195 -403l-39 68q117 96 140 247 q-37 -12 -58 -12q-61 0 -94 60q-29 49 -29 116z" />
<glyph unicode="&#x201e;" horiz-adv-x="929" d="M127 150q0 66 29 112q33 57 94 57q82 0 121 -86q30 -67 30 -159q0 -231 -196 -404l-39 68q70 57 99.5 109.5t41.5 140.5q-41 -12 -57 -13q-61 0 -94 60q-29 49 -29 115zM528 150q0 66 29 112q33 57 94 57q82 0 121 -86q31 -67 31 -159q0 -231 -195 -404l-39 68 q68 57 97.5 109.5t42.5 140.5q-37 -12 -58 -13q-61 0 -94 60q-29 49 -29 115z" />
<glyph unicode="&#x2022;" horiz-adv-x="1146" d="M336 727q0 115 61 203q70 98 181 98q104 0 174 -100q63 -90 63 -199q0 -113 -61 -201q-70 -98 -179 -98q-104 0 -176 98q-63 90 -63 199z" />
<glyph unicode="&#x2026;" horiz-adv-x="1583" d="M127 147q0 66 37 119t100 53q66 0 101.5 -52t35.5 -120q0 -66 -36.5 -119t-100.5 -53q-61 0 -100 58q-37 51 -37 114zM653 147q0 63 38 117.5t100 54.5q63 0 104 -55q35 -51 35 -117t-37 -114q-41 -57 -102 -58q-61 0 -101 58q-37 51 -37 114zM1182 147q0 63 37.5 117.5 t99.5 54.5q63 0 104 -55q35 -51 35 -117t-37 -114q-41 -57 -102 -58q-61 0 -100 58q-37 51 -37 114z" />
<glyph unicode="&#x202f;" horiz-adv-x="324" />
<glyph unicode="&#x2039;" horiz-adv-x="536" d="M104 610l162 424h146l-164 -424l164 -426h-146z" />
<glyph unicode="&#x203a;" horiz-adv-x="536" d="M127 184l164 426l-164 424h145l162 -424l-162 -426h-145z" />
<glyph unicode="&#x205f;" horiz-adv-x="405" />
<glyph unicode="&#x2122;" horiz-adv-x="2189" d="M2 1249v221h33q12 -37 43 -36h745q33 0 43 36h33v-221h-33q-10 37 -41 37h-270v-602q0 -27 41 -37v-29h-291v29q41 10 41 37v602h-272q-25 0 -39 -37h-33zM973 618v29q43 10 43 37v682q0 27 -43 37v31h356v-31q-31 0 -31 -23q0 -16 23 -53l223 -369l219 357q35 57 35 67 q0 20 -33 21v31h351v-31q-41 -10 -41 -37v-682q0 -27 41 -37v-29h-291v29q41 10 41 37v471l-338 -532l-322 530v-469q0 -27 41 -37v-29h-274z" />
<glyph unicode="&#x25fc;" horiz-adv-x="1433" d="M0 0v1434h1434v-1434h-1434z" />
</font>
</defs>
</svg>
